<svg xmlns="http://www.w3.org/2000/svg" width="131.7625mm" height="93.397919mm" viewBox="0 0 131.7625 93.397919"><g style="display:inline"><g style="display:inline"><g style="display:inline"><path d="M285.355 93.656c-.145-.043-1.246 2.742-2.449 6.192-1.203 3.449-2.933 8.346-3.844 10.882l-.486 1.352h-59.662l-.965-3.46c-2.003-7.179-3.979-13.356-4.433-13.86-.144-.16-2.904.395-6.133 1.232-8.798 2.282-10.907 2.572-20.46 2.81-11.917.298-17.725-.426-25.847-3.214-1.749-.6-3.342-1.092-3.539-1.092-.533 0-11.12 11.484-14.111 15.307-1.428 1.824-2.596 3.544-2.596 3.82 0 .276 1.342 3.18 2.982 6.457 6.268 12.519 9.537 21.054 10.375 27.086l.448 3.217 3.875 3.506c2.934 2.653 5.013 4.6 6.558 6.168v100.904h-13.377v13.824h7.075c3.352 5.947 8.343 11.878 14.09 16.463a79.82 79.82 0 0 0 5.001 3.662v4.65h7.766c6.104 3.258 14.064 6.796 26.404 11.864 11.353 4.662 27.752 13.333 34.08 18.021 1.398 1.035 2.6 1.883 2.672 1.883.073 0 1.794-1.237 3.825-2.748 5.283-3.932 18.395-10.461 39.658-19.748 9.568-4.179 15.582-6.927 20.209-9.271h9.51v-5.454c.173-.113.355-.212.529-.328 4.714-3.126 10.304-8.696 13.41-13.36 1.202-1.805 3.26-5.552 4.84-8.634h6.177v-10.303h-11.029V158.293a138.478 138.478 0 0 1 3.793-3.809l4.278-4.097 1-4.612c1.816-8.377 5.122-17.205 10.367-27.677l2.726-5.444-7.027-7.693c-3.865-4.232-7.64-8.32-8.389-9.086l-1.36-1.393-5.888 1.678c-7.488 2.136-13.298 3.102-20.275 3.367-9.422.359-18.261-1.1-25.856-4.267-2.011-.839-3.776-1.56-3.922-1.604z" style="opacity:1;fill:#fff;fill-opacity:1;stroke:none;stroke-width:1.70378" transform="matrix(.26458 0 0 .26458 0 0)"/></g><path d="M282.066 102.361c-5.52 4.313-4.027 9.324-6.98 13.033l-51.34-2.802c-1.403-3.4-2.242-5.543-4.833-9.499 0 0-25.242 8.439-50.911 3.241l-7.5-1.518-5.018 5.657-5.017 5.654 3.758 7.687c6.27 9.417 10.02 28.195 10.02 33.704V265s-.845-1.84 4.634 8.564c5.478 10.404 19.806 18.702 44.896 29.073 11.24 4.645 25.576 11.834 30.93 15.51l4.203 2.886 5.297-3.383c6.832-4.364 16.768-9.335 29.295-14.656 30.892-13.123 44.784-23.224 50.38-37.527h.227v-105.57s1.28-17.817 4.493-22.592l9.168-21.237-5.133-5.632-5.135-5.635-7.5 1.525c-16.477 3.353-27.332 2.978-41.639-1.441-5.84-1.804-6.295-2.524-6.295-2.524z" style="display:inline;opacity:1;fill:#03395f;fill-opacity:1;stroke-width:.999999" transform="scale(.26458)"/><g style="display:inline"><path d="m445.98 134.084-60.47 8.422-37.621 10.113-22.004 22.117-11.576 84.52 29.814-1.934 27.432-9.134 31.18-35.21 33.161-21.044-15.503-11.793 23.867-20.518 32.138-16.525zm-425.856 9.33 53.396 29.355 3.335 9.406-15.702 9.797 27.34 15.586s36.268 52.602 74.732 52.347l21.458-1.886-12.507-88.515-22.671-17.894-36.64-10.994-23.507-.97-38.688-6.564z" style="opacity:1;fill:#fac80c;fill-opacity:1;stroke:none;stroke-width:1.66382" transform="scale(.26458)"/></g><g style="display:inline"><path d="M239.922 287.317c-30.853-3.736-57.802-27.544-66.926-57.643-5.294-17.468-4.11-38.94 3.391-55.764 7.215-16.184 23.5-31.49 39.219-39.094 11.056-5.349 20.292-4.292 24.13.079 2.634 3 3.123 6.033 1.406 8.727-1.517 2.38-3.883 5.867-10.81 8.663-8.615 3.475-15.959 8.421-22.178 14.936-16.677 17.467-21.167 37.584-9.255 52.026 6.038 7.32 15.375 11.029 27.768 11.029h4.152l2.314 2.12c4.447 4.075 9.506 6.105 15.997 6.418 6.92.333 10.456-2.575 16.685-7.04l3.258-2.517 4.81 1.019c18.079 3.83 26.548-5.177 30.256-21.366.957-4.176.878-12.079-.169-16.999-2.278-10.71-24.731-33.854-15.416-27.26 7.204 5.1 19.654 17.042-21.342-13.604-5.11-3.82-9.01-4.043-10.638-6.82-1.345-2.295-1.306-4.4.132-6.96 3.524-6.273 14.432-9.033 26.15-3.2 7.615 3.79 15.113 9.398 22.569 16.878 11.993 12.031 19.783 26.202 22.505 42.146 5.751 33.68-14.719 72.937-45.139 87.348-6.512 3.085-12.358 4.903-19.993 6.219-4.913.846-18.176 1.228-22.876.66z" style="opacity:1;fill:#f6ee43;fill-opacity:1;stroke:none;stroke-width:1.66382" transform="scale(.26458)"/><path d="M67.63 110.836c-2.698-.874-4.335-3.115-4.14-5.668.156-2.033 1.338-3.826 3.047-4.624 2.57-1.198 5.717-.309 7.212 2.038 1.084 1.703 1.07 4.168-.036 5.89-1.257 1.959-4.019 3.032-6.083 2.364z" style="opacity:1;fill:#f6ee43;fill-opacity:1;stroke:none;stroke-width:.521375" transform="translate(-3.126 -48.616)"/></g><g style="display:inline"><path d="m61.904 78.304-1.585-5.746 17.527.028-1.669 5.77Z" style="opacity:1;fill:#c7c8ca;fill-opacity:1;stroke:none;stroke-width:.507889" transform="translate(-3.126 -48.616)"/><path d="M67.011 78.997h3.98v13.559h-3.98z" style="opacity:1;fill:#c7c8ca;fill-opacity:1;stroke:none;stroke-width:1.222" transform="translate(-3.126 -48.616)"/></g><g style="display:inline"><path d="m69.328 52.022-2.146 3.529c-.328.358-.71.752-1.159 1.2-1.722 1.718-3.381 3.071-3.642 2.97-.086-.032-.253-.249-.372-.48l-.217-.421-.358 1.114c-.817 2.536-1.13 4.63-.91 6.057.021.132.045.26.071.385l.756 1.752 2.961 3.76 5.935.921 2.044-.386c.2.024 2.62-1.714 3.29-2.454a9.77 9.77 0 0 0 2.013-3.445c.26-.76.305-1.078.305-2.123 0-1.085-.04-1.348-.346-2.235a23.174 23.174 0 0 0-.668-1.71l-.311-.68-.014-.134-2.918-3.075-.03-.037-.598-.719-.024.07z" style="opacity:1;fill:#ed7026;fill-opacity:1;stroke:none;stroke-width:.516183" transform="translate(-3.126 -48.616)"/></g></g><path d="M243.895 6.918s.105 2.628.105 4.518c0 5.705-1.777 8.76-9.086 15.613-3.822 3.583-7.314 6.67-7.314 6.67l-.579-4.856S215.674 39.43 214 52.5c-1.376 10.738.97 23.426 10.164 32.248l-9.486.191s-4.553 2.044-8.678 3.563c-13.562 4.993-29.43 4.537-43.459-1.246l-5.959-2.457-8.041 8.814c-4.423 4.848-10.57 11.509-13.662 14.801l-5.621 5.986 3.756 5.551c4.904 7.248 8.384 14.276 10.35 20.899l1.587 5.347-7.181-.72c-4.935-.496-7.303-.536-7.303-.536s-12.58-12.168-34.967-10.875c-3.968.23-11.918.39-11.918.39s-6.457-1.17-8.082-1.542c-18.48-4.235-41.304-4.038-56.977 4.115-9.48 4.932-14.257 8.223-14.257 8.223 33.142 9.006 76.95 35.488 65.275 37.088-6.319.866-15.756 4.914-21.816 9.36l-5.184 3.8 7.865.715c20.814 1.891 36.43 11.499 54.1 33.285 14.079 17.358 21.341 23.673 34.133 29.674 7.437 3.49 8.24 4.369 8.24 4.369s1.563 33.808 59.734 54.004c13.08 4.541 28.95 13.802 35.867 18.978 3.493 2.614 6.897 4.965 6.897 4.965s1.482-1.327 3.297-2.83c7.75-6.417 20.202-13.115 40.326-21.691 36.2-15.427 50.271-27.577 57.486-49.637 1.487-4.546 2.076-5.198 5.82-6.434 10.928-3.606 24.503-15.027 37.489-31.54 16.134-20.517 33.979-31.554 53.441-33.055 7.605-.587 7.703-.778 7.703-.778s-8.793-8.14-15.398-10.402c-6.605-2.261-13.639-3.513-14.37-3.728-6.257-1.849 35.794-25.039 60.393-33.305l8.483-2.852-4.799-3.08c-15.088-9.682-40.488-13.552-62.867-9.582-4.885.867-13.295 2.2-13.295 2.2-16.56-3.307-31.977 1.379-41.092 7.228a162.352 162.352 0 0 1-4.906 3.02c-6.368-1.593-13.445 1.468-13.445 1.468s1.338-11.387 10.61-25.332l4.507-6.775-13.315-14.444a2874.78 2874.78 0 0 1-13.867-15.156s-5.453 2.33-9.578 3.871c-11.149 4.168-29.027 4.136-40-.072-4.125-1.582-8.219-3.678-8.219-3.678l-9.633-.082 3.399-4.453c9.034-11.835 9.513-28.098 1.283-43.539-1.85-3.47-4.197-6.904-4.197-6.904l-.801 3.023s-1.1-.075-1.947-1.451c-1.85-3.004-8.393-10.344-12.596-10.535 0 0-3.262-4.29-4.603-6.04-2.64-3.44-10.791-8.007-10.791-8.007zm5.859 11.754 2.78 4.197c5.625 8.502 3.838 14.133-7.34 23.125-11.512 9.26-16.305 20.045-13.612 30.627 0 2.9 2.961 5.932 2.961 5.932l-1.734-.033s-2.379-2.597-3.733-4.084c-8.137-8.943-11.39-16.12-3.365-38.028 0 0 .767 2.45 1.976 3.533 5.796-3.566 18.868-15.962 20.793-21.562zm11.928 12.361 2.035 2.233c6.414 7.044 5.207 14.459-3.98 24.466-9.016 9.821-12.653 19.534-6.89 28.27l-9.443-.022s-3.345-2.964-4.775-5.79c-5.066-10.014-2.433-17.81 10.101-29.897 7.713-7.437 9.876-10.174 11.25-14.234zm11.513 12.528 1.59 3.468c5.27 11.498 2.68 16.9.049 23.67-2.631 6.771-13.328 14.32-13.328 14.32l-2.85-.117c-5.223-9.816-3.664-13.613 5.344-24.029 6.263-7.242 6.652-7.867 8-12.873Zm5.022 48.224L272.627 111l-46.961.06-5.353-18.96Zm5.931 4.14c16.51 8.903 37.149 6.548 47.707 3.25 4.046-1.262 7.46-2.157 7.588-1.986.128.171 3.844 4.235 8.258 9.032l8.026 8.72-4.844 9.78c-2.664 5.378-5.814 13.604-6.998 18.279-1.702 6.722-1.918 8.957-1.918 8.957s-10.847 9.599-16.07 17.164c-7.874-26.244-48.572-49.813-64.422-43.87l-.026-7.683 15.168-.08 5.45-15.127zM159.5 96.946l6.5 2.18c9.845 3.3 29.549 3.287 40.266-.025a74.188 74.188 0 0 1 8.17-1.998l2.136 5.9 4.07 14.498 17.149-.025.104 5.66c-38.202 0-62.93 37.021-65.72 46.369-1.8-6.845-8.9-11.445-8.9-11.445l-6.709-6.276c0-7.925-5.7-20.235-9.56-27.654-2.581-4.962-3.998-8.42-3.998-8.42s3.515-5.047 8.242-10.043zM243 118h12v5.041c0 3.583-.62 5.878-2.14 7.936-3.385 4.577-3.562 11.52-.442 17.326 1.668 3.104 2.582 6.376 2.582 9.25V162h-12v-4.398c0-2.853.875-5.928 2.488-8.75 3.32-5.808 3.333-12.002.037-17.352-1.69-2.743-2.472-5.492-2.494-8.75zm24.395 13.445c14.12-.299 41.007 19.475 51.445 40.19 22.603 44.86-4.727 101.596-53.428 110.914v-.002c-76.773 14.689-125.817-75.953-70.951-131.13 15.22-15.304 36.195-23.916 42.615-17.495 6.094 6.094 3.59 11.926-6.724 15.662-47.812 17.317-54.28 80.96-8.463 83.273 3.497.178 7.793.028 7.793.028s2.157 2.295 3.937 3.654c8.96 6.839 21.79 6.847 30.733.022 1.853-1.415 4.736-3.655 4.736-3.655s3.857.123 7.527-.09c44.757-2.59 38.54-67.29-7.95-82.761-10.743-3.575-13.79-10.082-7.616-16.256 1.553-1.554 3.73-2.298 6.346-2.354zm-212.043 7.807c30.349-.094 54.058 16.219 77.804 52.248 12.902 19.577 14.818 22.34 20.035 27.06 1.442 1.305 9.809 8.522 9.809 8.522s-2.735.44-6.957-.144c-4.222-.585-13.876-5.897-23.953-16.917-18.58-20.317-30.923-29.855-44.432-27.513 0 0-.31-1.936-5.256-6.381C69.776 164.779 48.373 151.6 35 146.94c-8.89-3.097-9.015-3.443-1.803-5.043 7.793-1.728 15.15-2.624 22.155-2.646zm386.074.922c2.266-.012 4.605.033 7.023.13 14.48.584 25.069 2.721 21.051 4.25-9.405 3.58-12.571 4.962-20.707 9.028-10.329 5.162-25.392 15.55-33.793 23.309-3.025 2.793-6.321 5.085-7.324 5.093-8.607.073-23.833 8.556-32.158 17.914-13.411 15.076-20.073 21.247-25.985 24.08-7.01 3.36-14.8 3.467-14.8 3.467s.95-1.472 2.892-2.511c4.78-2.559 15.274-15.013 24.135-28.643 27.894-42.906 45.668-55.94 79.666-56.117zm-343.4 1.431c17.027.328 29.074 9.612 44.927 32.957 6.28 9.25 13.287 19.109 15.568 21.91 4.018 4.933 4.17 5.386 4.803 14.311.36 5.07.414 9.205.414 9.205s-11.164-8.676-21.924-27.869c-21.26-37.925-47.263-50.46-47.263-50.46a52.028 52.028 0 0 1 3.474-.054zm298.995.426 7.16.063-5.964 2.888c-12.008 6.129-21.48 16.548-38.928 42.82-8.57 12.904-16.927 24.994-18.572 26.868-2.774 3.16-5.5 4.559-5.5 4.559s-.755-2.932-.438-8.489c.523-9.165.539-9.208 5.123-14.736 2.53-3.05 9.096-12.287 14.592-20.525 15.925-23.87 27.952-33.578 42.527-33.448zm-34.355 9.934c.463-.01.715.006.715.006s.362.222-3.131 4.105c-2.586 2.876-5.983 7.89-19.25 28.414-3.567 5.52-6.139 7.774-6.139 7.774s-1.462-2.713-2.683-7.276l-2.145-8.01 4.504-5.923c11.207-17.62 24.885-19.016 28.129-19.09zm-226.94.543c11.168 0 19.013 7.24 26.928 17.428l5.403 6.953-2.02 7.715c-1.111 4.243-2.208 7.9-2.435 8.128-.485.485-4.75-5.633-15.502-22.232-4.276-6.6-12.373-17.992-12.373-17.992zm126.585 2.96c19.97 5.677 38.38 23.868 38.38 41.75 0 17.883-12.12 29.734-27.923 29.669 9.738-17.723-5.45-39.35-24.168-39.35s-31.293 22.32-21.711 38.227c-11.079.519-27.514-5.857-27.514-27.354 0-21.623 17.693-39.18 37.69-42.803l-.077 14.125 25.246.436zM82.016 188.692c13.816-.36 27.802 6.577 39.535 19.903 17.391 19.752 24.357 24.31 38.484 25.176l7.537.462 1.86 4.633c1.023 2.549 3.418 7.249 5.322 10.444 1.904 3.194 3.103 6.117 3.103 6.117s-13.107 1.24-17.988.513c-17.108-2.543-30.66-11.527-47.254-31.326-15.13-18.053-25.64-26.702-37.804-31.107l-6.295-2.277 3.992-1.11a39.3 39.3 0 0 1 9.508-1.428zm334.273.399c3.851.046 7.343.383 9.129.918l4.07 1.219-5.994 2.181c-12.455 4.534-23.429 13.724-39.805 33.332-12.888 15.433-27.085 25.358-40.189 28.1-8.656 1.81-23.5.586-23.5.586s1.048-2.144 2.33-4.196c1.282-2.051 3.784-6.68 5.436-10.343l3.103-6.885 7.317-.219c11.538-.771 19.414-4.879 28.775-15.004 22.645-24.492 29.565-29.006 45.408-29.634a76.388 76.388 0 0 1 3.92-.055zm-167.787 8.205a20.38 20.38 0 0 1 1.783.064c18.997 1.503 23.041 26.757 5.461 34.102-5.114 2.137-9.56 1.923-14.775-.711-16.842-8.508-10.524-33.309 7.53-33.455zm64.008 67.691 21.37.48 7.12.2c-10.088 23.774-20.35 28.389-51.5 41.836-14.407 6.22-30.188 13.971-33.713 16.227-3.525 2.255-6.705 4.992-6.705 4.992s-2-.887-3.582-2.326c-1.605-1.46-17.372-11.206-34.59-17.909-13.865-6.13-45.116-15.71-53.808-43.486h7.142l20.664.28c18.765 20.651 77.06 50.906 127.602-.294z" style="display:inline;opacity:1;fill:#393a37;fill-opacity:1;stroke-width:.999999" transform="scale(.26458)"/></g></svg>