<svg xmlns="http://www.w3.org/2000/svg" xmlns:xlink="http://www.w3.org/1999/xlink" width="25.612387mm" height="25.663509mm" viewBox="0 0 25.612387 25.66351"><defs><linearGradient id="b"><stop offset="0" style="stop-color:#777;stop-opacity:1"/><stop offset="0.5" style="stop-color:#fff;stop-opacity:1"/><stop offset="1" style="stop-color:#777;stop-opacity:1"/></linearGradient><linearGradient id="a"><stop offset="0" style="stop-color:#e9de94;stop-opacity:1"/><stop offset="1" style="stop-color:#c38c00;stop-opacity:1"/></linearGradient><linearGradient xlink:href="#a" id="G" x1="-256.95593" x2="-231.85052" y1="292.65326" y2="292.65326" gradientTransform="translate(-.532 -23.386)" gradientUnits="userSpaceOnUse"/><linearGradient xlink:href="#a" id="w" x1="-256.95593" x2="-231.85052" y1="292.65326" y2="292.65326" gradientTransform="translate(-.532 -23.386)" gradientUnits="userSpaceOnUse"/><linearGradient xlink:href="#a" id="x" x1="-256.95593" x2="-231.85052" y1="292.65326" y2="292.65326" gradientTransform="translate(-.532 -23.386)" gradientUnits="userSpaceOnUse"/><linearGradient xlink:href="#a" id="y" x1="-256.95593" x2="-231.85052" y1="292.65326" y2="292.65326" gradientTransform="translate(-.532 -23.386)" gradientUnits="userSpaceOnUse"/><linearGradient xlink:href="#a" id="z" x1="-256.95593" x2="-231.85052" y1="292.65326" y2="292.65326" gradientTransform="translate(-.532 -23.386)" gradientUnits="userSpaceOnUse"/><linearGradient xlink:href="#a" id="A" x1="-256.95593" x2="-231.85052" y1="292.65326" y2="292.65326" gradientTransform="translate(-.532 -23.386)" gradientUnits="userSpaceOnUse"/><linearGradient xlink:href="#a" id="B" x1="-256.95593" x2="-231.85052" y1="292.65326" y2="292.65326" gradientTransform="translate(-.532 -23.386)" gradientUnits="userSpaceOnUse"/><linearGradient xlink:href="#a" id="C" x1="-256.95593" x2="-231.85052" y1="292.65326" y2="292.65326" gradientTransform="translate(-.532 -23.386)" gradientUnits="userSpaceOnUse"/><linearGradient xlink:href="#a" id="D" x1="-256.95593" x2="-231.85052" y1="292.65326" y2="292.65326" gradientTransform="translate(-.532 -23.386)" gradientUnits="userSpaceOnUse"/><linearGradient xlink:href="#a" id="E" x1="-256.95593" x2="-231.85052" y1="292.65326" y2="292.65326" gradientTransform="translate(-.532 -23.386)" gradientUnits="userSpaceOnUse"/><linearGradient xlink:href="#a" id="F" x1="-256.95593" x2="-231.85052" y1="292.65326" y2="292.65326" gradientTransform="translate(-.532 -23.386)" gradientUnits="userSpaceOnUse"/><linearGradient id="t"><stop offset="0" style="stop-color:#4e6471;stop-opacity:1"/><stop offset="0.11959876" style="stop-color:#e4f3fb;stop-opacity:1"/><stop offset="0.39780521" style="stop-color:#4e6471;stop-opacity:1"/><stop offset="0.62037039" style="stop-color:#e4f3fb;stop-opacity:1"/><stop offset="1" style="stop-color:#4e6471;stop-opacity:1"/></linearGradient><linearGradient id="e"><stop offset="0" style="stop-color:#ffb200;stop-opacity:1"/><stop offset="0.11959876" style="stop-color:#fff0cb;stop-opacity:1"/><stop offset="0.39780521" style="stop-color:#ffb600;stop-opacity:1"/><stop offset="0.62037039" style="stop-color:#fff0cb;stop-opacity:1"/><stop offset="1" style="stop-color:#ffb200;stop-opacity:1"/></linearGradient><linearGradient id="c"><stop offset="0" style="stop-color:#f5f5f5;stop-opacity:1"/><stop offset="1" style="stop-color:#d3d3d3;stop-opacity:1"/></linearGradient><linearGradient id="d"><stop offset="0" style="stop-color:#000;stop-opacity:1"/><stop offset="0.5" style="stop-color:#fff;stop-opacity:1"/><stop offset="1" style="stop-color:#000;stop-opacity:1"/></linearGradient><linearGradient id="f"><stop offset="0" style="stop-color:#ffb200;stop-opacity:1"/><stop offset="1" style="stop-color:#fff;stop-opacity:1"/></linearGradient><linearGradient id="g"><stop offset="0" style="stop-color:#f0f0f0;stop-opacity:1"/><stop offset="1" style="stop-color:#c8c8c8;stop-opacity:1"/></linearGradient><linearGradient id="h"><stop offset="0" style="stop-color:#b4b9be;stop-opacity:1"/><stop offset="1" style="stop-color:#b4b9be;stop-opacity:0"/></linearGradient><linearGradient id="k"><stop offset="0" style="stop-color:#292c2f;stop-opacity:1"/><stop offset="0.25" style="stop-color:#fff;stop-opacity:1"/><stop offset="0.5" style="stop-color:#292c2f;stop-opacity:1"/><stop offset="0.75" style="stop-color:#fff;stop-opacity:1"/><stop offset="1" style="stop-color:#292c2f;stop-opacity:1"/></linearGradient><linearGradient id="j"><stop offset="0" style="stop-color:#53565b;stop-opacity:1"/><stop offset="1" style="stop-color:#dcdcdc;stop-opacity:1"/></linearGradient><linearGradient id="i"><stop offset="0" style="stop-color:#dcdcdc;stop-opacity:1"/><stop offset="1" style="stop-color:#000;stop-opacity:1"/></linearGradient><linearGradient id="q"><stop offset="0" style="stop-color:#865100;stop-opacity:1"/><stop offset="1" style="stop-color:#865100;stop-opacity:0"/></linearGradient><linearGradient id="p"><stop offset="0" style="stop-color:#e9de94;stop-opacity:1"/><stop offset="1" style="stop-color:#e9de94;stop-opacity:0"/></linearGradient><linearGradient id="r"><stop offset="0" style="stop-color:#c38c00;stop-opacity:1"/><stop offset="0.25" style="stop-color:#e9de94;stop-opacity:1"/><stop offset="0.5" style="stop-color:#c38c00;stop-opacity:1"/><stop offset="0.75" style="stop-color:#e9de94;stop-opacity:1"/><stop offset="1" style="stop-color:#c38c00;stop-opacity:1"/></linearGradient><linearGradient id="m"><stop offset="0" style="stop-color:#824b00;stop-opacity:1"/><stop offset="1" style="stop-color:#b07b00;stop-opacity:1"/></linearGradient><linearGradient id="n"><stop offset="0" style="stop-color:#deab2d;stop-opacity:1"/><stop offset="1" style="stop-color:#824b00;stop-opacity:1"/></linearGradient><linearGradient id="o"><stop offset="0" style="stop-color:#d9bd55;stop-opacity:1"/><stop offset="1" style="stop-color:#d9bd55;stop-opacity:0"/></linearGradient><linearGradient id="l"><stop offset="0" style="stop-color:#824b00;stop-opacity:1"/><stop offset="0.5" style="stop-color:#deab2d;stop-opacity:1"/><stop offset="1" style="stop-color:#824b00;stop-opacity:1"/></linearGradient><linearGradient id="s"><stop offset="0" style="stop-color:#4e6471;stop-opacity:1"/><stop offset="1" style="stop-color:#fff;stop-opacity:1"/></linearGradient><linearGradient xlink:href="#a" id="H" x1="-207.90562" x2="-173.68687" y1="960.4231" y2="960.4231" gradientUnits="userSpaceOnUse"/><linearGradient xlink:href="#a" id="v" x1="-83.00753" x2="-81.501953" y1="139.16573" y2="139.16573" gradientTransform="translate(199.218 -126.39)" gradientUnits="userSpaceOnUse"/><linearGradient xlink:href="#a" id="u" x1="-83.00753" x2="-81.501953" y1="139.16573" y2="139.16573" gradientTransform="translate(143.964 -249.227)" gradientUnits="userSpaceOnUse"/></defs><path d="M61.048-117.999h1.322v5.292h-1.322z" style="opacity:1;fill:url(#u);fill-opacity:1;stroke:#d4aa00;stroke-width:.26458332;stroke-linecap:round;stroke-linejoin:miter;stroke-miterlimit:4;stroke-dasharray:none;stroke-opacity:1" transform="scale(1 -1) rotate(31.115 -149.488 -135.554)"/><path d="M116.302 4.838h1.323v5.292h-1.323z" style="opacity:1;fill:url(#v);fill-opacity:1;stroke:#d4aa00;stroke-width:.26458332;stroke-linecap:round;stroke-linejoin:miter;stroke-miterlimit:4;stroke-dasharray:none;stroke-opacity:1" transform="rotate(31.115 57.931 -193.301)"/><g style="stroke:#d4aa00;stroke-width:.26458332;stroke-miterlimit:4;stroke-dasharray:none;stroke-opacity:1"><path d="M-234.174 269.363c1.258-1.708 1.74-3.484 1.509-5.322-.326.04-.64.119-.85.511.197-.915-.208-1.687-.604-2.461-.389.186-.695.434-.725.89-.266-1.025-.795-1.814-1.801-2.18-.777.818-.972 1.735-.734 2.724-.132-.314-.445-.533-.958-.646-.204.94-.027 1.746.34 2.484-.253-.3-.59-.365-.976-.288.29 2.722 2.032 3.592 3.725 4.527" style="fill:url(#w);fill-opacity:1;fill-rule:evenodd;stroke:#d4aa00;stroke-width:.26458332;stroke-linecap:round;stroke-linejoin:round;stroke-miterlimit:4;stroke-dasharray:none;stroke-opacity:1" transform="translate(257.7 -252.22)"/><g style="fill:#ccc;fill-opacity:1;stroke:#d4aa00;stroke-width:.24226707;stroke-miterlimit:4;stroke-dasharray:none;stroke-opacity:1"><g style="fill:#ccc;fill-opacity:1;stroke:#d4aa00;stroke-width:.72227061;stroke-miterlimit:4;stroke-dasharray:none;stroke-opacity:1"><path d="m496.071 632.898 3.305 23.605" style="fill:#ccc;fill-opacity:1;fill-rule:evenodd;stroke:#d4aa00;stroke-width:.72227061;stroke-linecap:round;stroke-linejoin:round;stroke-miterlimit:4;stroke-dasharray:none;stroke-opacity:1" transform="matrix(-.34032 .1204 .11598 .35328 116.512 -274.738)"/><path d="M503.641 640.777s-1.551 3.452-2.948 4.71c-.77.696-2.81 1.401-2.81 1.401M490.26 642.44s2.023 2.745 3.509 3.553c1.212.659 4.113.895 4.113.895" style="fill:none;fill-opacity:1;fill-rule:evenodd;stroke:#d4aa00;stroke-width:.72227061;stroke-linecap:round;stroke-linejoin:round;stroke-miterlimit:4;stroke-dasharray:none;stroke-opacity:1" transform="matrix(-.34032 .1204 .11598 .35328 116.512 -274.738)"/></g><path d="M315.574 213.258s.672.018.957.172c.273.147.64.673.64.673s-.107.47-.25.655c-.22.29-.884.642-.884.642M319.25 216.523s1.024-1.085 1.375-1.734c.235-.435.469-1.406.469-1.406s-.318-.716-.578-1c-.539-.588-1.957-1.372-1.957-1.372" style="fill:none;fill-opacity:1;stroke:#d4aa00;stroke-width:.24226707;stroke-linecap:butt;stroke-linejoin:miter;stroke-miterlimit:4;stroke-dasharray:none;stroke-opacity:1" transform="matrix(0 1.07993 -1.10443 0 258.149 -330.796)"/></g><path d="M-238.673 274.3c-.849-1.935-.925-3.77-.29-5.515.309.109.597.252.715.68.012-.936.579-1.603 1.137-2.275.339.264.582.572.51 1.023.487-.944 1.18-1.602 2.243-1.744.576.963.563 1.899.11 2.814.199-.279.553-.426 1.08-.427-.011.96-.362 1.71-.885 2.353.315-.24.658-.231 1.017-.074-.887 2.595-2.782 3.074-4.642 3.627" style="fill:url(#x);fill-opacity:1;fill-rule:evenodd;stroke:#d4aa00;stroke-width:.26458332;stroke-linecap:round;stroke-linejoin:round;stroke-miterlimit:4;stroke-dasharray:none;stroke-opacity:1" transform="translate(257.7 -252.22)"/><g style="fill:#ccc;fill-opacity:1;stroke:#d4aa00;stroke-width:.24226707;stroke-miterlimit:4;stroke-dasharray:none;stroke-opacity:1"><g style="fill:#ccc;fill-opacity:1;stroke:#d4aa00;stroke-width:.72227061;stroke-miterlimit:4;stroke-dasharray:none;stroke-opacity:1"><path d="m496.071 632.898 3.305 23.605" style="fill:#ccc;fill-opacity:1;fill-rule:evenodd;stroke:#d4aa00;stroke-width:.72227061;stroke-linecap:round;stroke-linejoin:round;stroke-miterlimit:4;stroke-dasharray:none;stroke-opacity:1" transform="matrix(.30543 .18983 -.19172 .3202 -6.805 -282.577)"/><path d="M503.581 640.915s-1.527 3.35-2.888 4.573c-.772.693-2.81 1.4-2.81 1.4M490.569 642.875s1.865 2.407 3.2 3.118c1.22.648 4.113.895 4.113.895" style="fill:none;fill-opacity:1;fill-rule:evenodd;stroke:#d4aa00;stroke-width:.72227061;stroke-linecap:round;stroke-linejoin:round;stroke-miterlimit:4;stroke-dasharray:none;stroke-opacity:1" transform="matrix(.30543 .18983 -.19172 .3202 -6.805 -282.577)"/></g><path d="M315.574 213.258s.67.022.957.172c.268.14.64.64.64.64s-.102.493-.25.688c-.219.29-.884.642-.884.642M319.25 216.523s1.024-1.085 1.375-1.734c.235-.435.469-1.406.469-1.406s-.32-.715-.578-1c-.547-.603-1.985-1.422-1.985-1.422" style="fill:none;fill-opacity:1;stroke:#d4aa00;stroke-width:.24226707;stroke-linecap:butt;stroke-linejoin:miter;stroke-miterlimit:4;stroke-dasharray:none;stroke-opacity:1" transform="matrix(-.24 1.05412 1.07804 .23468 -132.599 -367.392)"/></g><path d="M-241.798 273.059c1.747-1.23 3.563-1.702 5.442-1.476-.041.319-.121.625-.523.83.936-.191 1.726.205 2.518.592-.19.38-.445.68-.91.71 1.047.259 1.855.776 2.228 1.76-.836.76-1.774.95-2.786.717.322.13.546.435.662.938-.962.198-1.786.026-2.541-.334.308.249.373.578.295.955-2.784-.283-3.674-1.987-4.63-3.642" style="fill:url(#y);fill-opacity:1;fill-rule:evenodd;stroke:#d4aa00;stroke-width:.26458332;stroke-linecap:round;stroke-linejoin:round;stroke-miterlimit:4;stroke-dasharray:none;stroke-opacity:1" transform="translate(257.7 -252.22)"/><path d="M-255.697 269.344c-1.258-1.708-1.74-3.484-1.508-5.322.325.041.639.12.85.512-.197-.915.207-1.687.604-2.462.388.186.694.435.725.89.265-1.024.794-1.814 1.8-2.179.778.818.972 1.734.734 2.724.132-.315.445-.533.959-.647.203.94.027 1.747-.341 2.485.254-.301.59-.365.976-.288-.289 2.722-2.032 3.592-3.724 4.526" style="fill:url(#z);fill-opacity:1;fill-rule:evenodd;stroke:#d4aa00;stroke-width:.26499999;stroke-linecap:round;stroke-linejoin:round;stroke-miterlimit:4;stroke-dasharray:none;stroke-opacity:1" transform="translate(257.7 -252.22)"/><g style="fill:#ccc;fill-opacity:1;stroke:#d4aa00;stroke-width:.24226707;stroke-miterlimit:4;stroke-dasharray:none;stroke-opacity:1"><g style="fill:#ccc;fill-opacity:1;stroke:#d4aa00;stroke-width:.72227061;stroke-miterlimit:4;stroke-dasharray:none;stroke-opacity:1"><path d="m496.071 632.898 3.305 23.605" style="fill:#ccc;fill-opacity:1;fill-rule:evenodd;stroke:#d4aa00;stroke-width:.72227061;stroke-linecap:round;stroke-linejoin:round;stroke-miterlimit:4;stroke-dasharray:none;stroke-opacity:1" transform="matrix(.34032 .1204 -.11598 .35328 -90.915 -274.756)"/><path d="M503.641 640.777s-1.551 3.452-2.948 4.71c-.77.696-2.81 1.401-2.81 1.401M490.26 642.44s2.023 2.745 3.509 3.553c1.212.659 4.113.895 4.113.895" style="fill:none;fill-opacity:1;fill-rule:evenodd;stroke:#d4aa00;stroke-width:.72227061;stroke-linecap:round;stroke-linejoin:round;stroke-miterlimit:4;stroke-dasharray:none;stroke-opacity:1" transform="matrix(.34032 .1204 -.11598 .35328 -90.915 -274.756)"/></g><path d="M315.574 213.258s.672.018.957.172c.273.147.64.673.64.673s-.107.47-.25.655c-.22.29-.884.642-.884.642M319.25 216.523s1.024-1.085 1.375-1.734c.235-.435.469-1.406.469-1.406s-.318-.716-.578-1c-.539-.588-1.957-1.372-1.957-1.372" style="fill:none;fill-opacity:1;stroke:#d4aa00;stroke-width:.24226707;stroke-linecap:butt;stroke-linejoin:miter;stroke-miterlimit:4;stroke-dasharray:none;stroke-opacity:1" transform="matrix(0 1.07993 1.10443 0 -232.552 -330.815)"/></g><path d="M-251.197 274.281c.848-1.934.924-3.77.29-5.515-.31.11-.598.252-.716.68-.011-.935-.578-1.603-1.137-2.274-.338.264-.581.572-.51 1.023-.487-.944-1.179-1.602-2.242-1.745-.577.964-.563 1.9-.11 2.815-.2-.28-.554-.426-1.08-.428.01.961.362 1.71.885 2.353-.315-.24-.658-.23-1.017-.074.887 2.596 2.782 3.075 4.641 3.627" style="fill:url(#A);fill-opacity:1;fill-rule:evenodd;stroke:#d4aa00;stroke-width:.26458332;stroke-linecap:round;stroke-linejoin:round;stroke-miterlimit:4;stroke-dasharray:none;stroke-opacity:1" transform="translate(257.7 -252.22)"/><g style="fill:#ccc;fill-opacity:1;stroke:#d4aa00;stroke-width:.24226707;stroke-miterlimit:4;stroke-dasharray:none;stroke-opacity:1"><g style="fill:#ccc;fill-opacity:1;stroke:#d4aa00;stroke-width:.72227061;stroke-miterlimit:4;stroke-dasharray:none;stroke-opacity:1"><path d="m496.071 632.898 3.305 23.605" style="fill:#ccc;fill-opacity:1;fill-rule:evenodd;stroke:#d4aa00;stroke-width:.72227061;stroke-linecap:round;stroke-linejoin:round;stroke-miterlimit:4;stroke-dasharray:none;stroke-opacity:1" transform="matrix(-.30543 .18983 .19172 .3202 32.401 -282.595)"/><path d="M503.581 640.915s-1.527 3.35-2.888 4.573c-.772.693-2.81 1.4-2.81 1.4M490.569 642.875s1.865 2.407 3.2 3.118c1.22.648 4.113.895 4.113.895" style="fill:none;fill-opacity:1;fill-rule:evenodd;stroke:#d4aa00;stroke-width:.72227061;stroke-linecap:round;stroke-linejoin:round;stroke-miterlimit:4;stroke-dasharray:none;stroke-opacity:1" transform="matrix(-.30543 .18983 .19172 .3202 32.401 -282.595)"/></g><path d="M315.574 213.258s.67.022.957.172c.268.14.64.64.64.64s-.102.493-.25.688c-.219.29-.884.642-.884.642M319.25 216.523s1.024-1.085 1.375-1.734c.235-.435.469-1.406.469-1.406s-.32-.715-.578-1c-.547-.603-1.985-1.422-1.985-1.422" style="fill:none;fill-opacity:1;stroke:#d4aa00;stroke-width:.24226707;stroke-linecap:butt;stroke-linejoin:miter;stroke-miterlimit:4;stroke-dasharray:none;stroke-opacity:1" transform="matrix(.24 1.05412 -1.07804 .23468 158.195 -367.41)"/></g><path d="M-248.072 273.04c-1.747-1.23-3.563-1.702-5.443-1.475.042.318.122.625.523.83-.936-.192-1.725.204-2.517.592.19.38.444.679.91.709-1.048.26-1.855.777-2.229 1.76.837.76 1.774.95 2.786.718-.321.129-.545.435-.661.937.961.199 1.786.027 2.54-.333-.307.248-.372.578-.294.955 2.784-.283 3.674-1.987 4.63-3.642" style="fill:url(#B);fill-opacity:1;fill-rule:evenodd;stroke:#d4aa00;stroke-width:.26458332;stroke-linecap:round;stroke-linejoin:round;stroke-miterlimit:4;stroke-dasharray:none;stroke-opacity:1" transform="translate(257.7 -252.22)"/><path d="M-243.502 272.463c.453-1.137 3.11-2.967.978-3.577.177-.512-.183-1.739-1.34-1.143-.432-1.132-1.788-1.088-2.127 0-1.158-.596-1.518.631-1.34 1.143-2.134.61.525 2.44.977 3.577 1.146 1.094 2.092 1.068 2.852 0z" style="fill:url(#C);fill-opacity:1;fill-rule:evenodd;stroke:#d4aa00;stroke-width:.26458332;stroke-linecap:butt;stroke-linejoin:miter;stroke-miterlimit:4;stroke-dasharray:none;stroke-opacity:1" transform="translate(257.7 -252.22)"/><g style="fill:#ccc;fill-opacity:1;stroke:#d4aa00;stroke-width:.24226707;stroke-miterlimit:4;stroke-dasharray:none;stroke-opacity:1"><g style="fill:#ccc;fill-opacity:1;stroke:#d4aa00;stroke-width:.72227061;stroke-miterlimit:4;stroke-dasharray:none;stroke-opacity:1"><path d="m496.071 632.898 3.305 23.605" style="fill:#ccc;fill-opacity:1;fill-rule:evenodd;stroke:#d4aa00;stroke-width:.72227061;stroke-linecap:round;stroke-linejoin:round;stroke-miterlimit:4;stroke-dasharray:none;stroke-opacity:1" transform="matrix(.12312 .33277 .3613 -.1134 -288.836 -70.075)"/><path d="M503.581 640.915s-1.527 3.35-2.888 4.573c-.772.693-2.81 1.4-2.81 1.4M490.569 642.875s1.865 2.407 3.2 3.118c1.22.648 4.113.895 4.113.895" style="fill:none;fill-opacity:1;fill-rule:evenodd;stroke:#d4aa00;stroke-width:.72227061;stroke-linecap:round;stroke-linejoin:round;stroke-miterlimit:4;stroke-dasharray:none;stroke-opacity:1" transform="matrix(.12312 .33277 .3613 -.1134 -288.836 -70.075)"/></g><path d="M315.574 213.258s.67.022.957.172c.268.14.64.64.64.64s-.102.493-.25.688c-.219.29-.884.642-.884.642M319.25 216.523s1.024-1.085 1.375-1.734c.235-.435.469-1.406.469-1.406s-.32-.715-.578-1c-.547-.603-1.985-1.422-1.985-1.422" style="fill:none;fill-opacity:1;stroke:#d4aa00;stroke-width:.24226707;stroke-linecap:butt;stroke-linejoin:miter;stroke-miterlimit:4;stroke-dasharray:none;stroke-opacity:1" transform="matrix(1.10443 0 0 1.07993 -346.166 -208.57)"/></g><path d="M-248.805 272.86c-.622.064-.881 1.745.108 1.71.022.847.849 1.433 1.656.888.748.631 1.322.218 1.54-.43.95-.498.454-1.22.19-1.554l-1.237-1.816z" style="fill:url(#D);fill-opacity:1;fill-rule:evenodd;stroke:#d4aa00;stroke-width:.26458332;stroke-linecap:butt;stroke-linejoin:miter;stroke-miterlimit:4;stroke-dasharray:none;stroke-opacity:1" transform="translate(257.7 -252.22)"/><path d="M-248.089 269.642c-.26-.292-.997-.366-.942.48-.7.04-1.014.604-.543 1.28-.501.657-.145 1.138.396 1.307.436.8 1.018.357 1.288.123l1.467-.038c.097-1.335-.842-2.218-1.666-3.152z" style="fill:url(#E);fill-opacity:1;fill-rule:evenodd;stroke:#d4aa00;stroke-width:.26458332;stroke-linecap:butt;stroke-linejoin:miter;stroke-miterlimit:4;stroke-dasharray:none;stroke-opacity:1" transform="translate(257.7 -252.22)"/><g style="fill:#ccc;fill-opacity:1;stroke:#d4aa00;stroke-width:.24226707;stroke-miterlimit:4;stroke-dasharray:none;stroke-opacity:1"><g style="fill:#ccc;fill-opacity:1;stroke:#d4aa00;stroke-width:.72227061;stroke-miterlimit:4;stroke-dasharray:none;stroke-opacity:1"><path d="m496.071 632.898 3.305 23.605" style="fill:#ccc;fill-opacity:1;fill-rule:evenodd;stroke:#d4aa00;stroke-width:.72227061;stroke-linecap:round;stroke-linejoin:round;stroke-miterlimit:4;stroke-dasharray:none;stroke-opacity:1" transform="matrix(-.12312 .33277 -.3613 -.1134 314.432 -70.057)"/><path d="M503.581 640.915s-1.527 3.35-2.888 4.573c-.772.693-2.81 1.4-2.81 1.4M490.569 642.875s1.865 2.407 3.2 3.118c1.22.648 4.113.895 4.113.895" style="fill:none;fill-opacity:1;fill-rule:evenodd;stroke:#d4aa00;stroke-width:.72227061;stroke-linecap:round;stroke-linejoin:round;stroke-miterlimit:4;stroke-dasharray:none;stroke-opacity:1" transform="matrix(-.12312 .33277 -.3613 -.1134 314.432 -70.057)"/></g><path d="M315.574 213.258s.67.022.957.172c.268.14.64.64.64.64s-.102.493-.25.688c-.219.29-.884.642-.884.642M319.25 216.523s1.024-1.085 1.375-1.734c.235-.435.469-1.406.469-1.406s-.32-.715-.578-1c-.547-.603-1.985-1.422-1.985-1.422" style="fill:none;fill-opacity:1;stroke:#d4aa00;stroke-width:.24226707;stroke-linecap:butt;stroke-linejoin:miter;stroke-miterlimit:4;stroke-dasharray:none;stroke-opacity:1" transform="matrix(-1.10443 0 0 1.07993 371.763 -208.552)"/></g><path d="M-241.014 272.86c.622.064.88 1.745-.108 1.71-.022.847-.85 1.433-1.657.888-.748.631-1.322.218-1.539-.43-.951-.498-.455-1.22-.191-1.554l1.237-1.816z" style="fill:url(#F);fill-opacity:1;fill-rule:evenodd;stroke:#d4aa00;stroke-width:.26458332;stroke-linecap:butt;stroke-linejoin:miter;stroke-miterlimit:4;stroke-dasharray:none;stroke-opacity:1" transform="translate(257.7 -252.22)"/><path d="M-241.767 269.642c.26-.292.997-.366.942.48.7.04 1.014.604.543 1.28.502.657.146 1.138-.396 1.307-.435.8-1.018.357-1.288.123l-1.467-.038c-.968-1.452 1-2.13 1.666-3.152z" style="fill:url(#G);fill-opacity:1;fill-rule:evenodd;stroke:#d4aa00;stroke-width:.26458332;stroke-linecap:butt;stroke-linejoin:miter;stroke-miterlimit:4;stroke-dasharray:none;stroke-opacity:1" transform="translate(257.7 -252.22)"/><g style="fill:#ccc;fill-opacity:1;stroke:#d4aa00;stroke-width:.21682777;stroke-miterlimit:4;stroke-dasharray:none;stroke-opacity:1"><g style="fill:#ccc;fill-opacity:1;stroke:#d4aa00;stroke-width:.64642847;stroke-miterlimit:4;stroke-dasharray:none;stroke-opacity:1"><path d="M371.843 548.198c.123-3.166.789-6.391 2.828-9.318M372.853 548.104c.123-3.167 1.42-5.224 3.396-7.014M370.361 548.198c-.123-3.166-.788-6.391-2.828-9.318M369.351 548.104c-.123-3.167-1.42-5.224-3.396-7.014" style="fill:none;fill-opacity:1;fill-rule:evenodd;stroke:#d4aa00;stroke-width:.64642847;stroke-linecap:round;stroke-linejoin:round;stroke-miterlimit:4;stroke-dasharray:none;stroke-opacity:1" transform="matrix(.40567 0 0 .41297 -137.738 -205.51)"/></g><g style="fill:#ccc;fill-opacity:1;stroke:#d4aa00;stroke-width:.64642841;stroke-miterlimit:4;stroke-dasharray:none;stroke-opacity:1"><path d="m376.26 545.423 2.014-3.009M376.292 546.37l3.608-2.744M376.19 546.782l4.145-.927" style="fill:none;fill-opacity:1;fill-rule:evenodd;stroke:#d4aa00;stroke-width:.64642841;stroke-linecap:round;stroke-linejoin:round;stroke-miterlimit:4;stroke-dasharray:none;stroke-opacity:1" transform="matrix(.08038 .40478 .39762 -.08182 -236.24 -87.081)"/></g><g style="fill:#ccc;fill-opacity:1;stroke:#d4aa00;stroke-width:.64642847;stroke-miterlimit:4;stroke-dasharray:none;stroke-opacity:1"><path d="m376.26 545.423 2.014-3.009M376.292 546.37l3.608-2.744M376.19 546.782l4.145-.927" style="fill:none;fill-opacity:1;fill-rule:evenodd;stroke:#d4aa00;stroke-width:.64642847;stroke-linecap:round;stroke-linejoin:round;stroke-miterlimit:4;stroke-dasharray:none;stroke-opacity:1" transform="matrix(-.08038 .40478 -.39762 -.08182 261.838 -87.063)"/></g><g style="fill:#ccc;fill-opacity:1;stroke:#d4aa00;stroke-width:.64642847;stroke-miterlimit:4;stroke-dasharray:none;stroke-opacity:1"><path d="m376.483 545.78 3.099-2.47M376.292 546.37l3.474-1.654M376.19 546.782l3.818-.474" style="fill:none;fill-opacity:1;fill-rule:evenodd;stroke:#d4aa00;stroke-width:.64642847;stroke-linecap:round;stroke-linejoin:round;stroke-miterlimit:4;stroke-dasharray:none;stroke-opacity:1" transform="matrix(.40567 0 0 .41297 -138.08 -205.51)"/></g><g style="fill:#ccc;fill-opacity:1;stroke:#d4aa00;stroke-width:.64642847;stroke-miterlimit:4;stroke-dasharray:none;stroke-opacity:1"><path d="m366.326 546.138-3.544-2.829M366.072 546.37l-3.474-1.654M366.174 546.782l-3.818-.474" style="fill:none;fill-opacity:1;fill-rule:evenodd;stroke:#d4aa00;stroke-width:.64642847;stroke-linecap:round;stroke-linejoin:round;stroke-miterlimit:4;stroke-dasharray:none;stroke-opacity:1" transform="matrix(.40567 0 0 .41297 -137.392 -205.51)"/></g><path d="M-462.201 155.036c-.173 0-.34.1-.416.244a.392.392 0 0 0-.052.228.437.437 0 0 0 .167.335c.018.019.049.03.063.048v2.676h.49l.001-2.68a.462.462 0 0 0 .228-.332.442.442 0 0 0-.075-.315.484.484 0 0 0-.406-.204z" style="opacity:1;fill:#dcc363;fill-opacity:1;stroke:#d4aa00;stroke-width:.21682777;stroke-linecap:round;stroke-linejoin:miter;stroke-miterlimit:4;stroke-dasharray:none;stroke-opacity:1" transform="matrix(1.17378 0 0 1.26855 555.34 -179.907)"/><path d="M-463.806 157.653v0c0-.115-.038-.203.08-.328.247.392.765.884 1.517.885.752-.002 1.27-.493 1.516-.885.119.125.08.213.08.328v0c0 .61-.726 1.105-1.596 1.107-.87-.001-1.597-.496-1.597-1.107z" style="opacity:1;fill:#dcc363;fill-opacity:1;stroke:#d4aa00;stroke-width:.21682777;stroke-linecap:round;stroke-linejoin:round;stroke-miterlimit:4;stroke-dasharray:none;stroke-opacity:1" transform="matrix(1.17378 0 0 1.26855 555.34 -179.907)"/></g></g><g style="stroke-width:.35011122;stroke-miterlimit:4;stroke-dasharray:none"><path d="M-207.671 952.995v4.687l16.908 10.313 16.842-10.313v-4.687l-16.842 10.312z" style="fill:url(#H);fill-opacity:1;stroke:#d4aa00;stroke-width:.35011122;stroke-linecap:butt;stroke-linejoin:miter;stroke-miterlimit:4;stroke-dasharray:none;stroke-opacity:1" transform="matrix(.7511 0 0 .76036 156.112 -724.38)"/></g></svg>